<svg version="1.2" xmlns="http://www.w3.org/2000/svg" viewBox="0 0 499 230" width="499" height="230">
	<title>126-ai</title>
	<style>
		.s0 { fill: #000000 } 
		.s1 { fill: #00d7ff } 
		.s2 { fill: #ff63be } 
		.s3 { fill: #ffffff } 
		.s4 { fill: #ffd01f } 
		.s5 { fill: #ffb700 } 
		.s6 { fill: #00aef2 } 
		.s7 { fill: #ffcc38 } 
	</style>
	<g id="BACKGROUND 1">
		<g id="&lt;Group&gt;" style="opacity: .8;mix-blend-mode: soft-light">
			<path id="&lt;Path&gt;" class="s0" d="m464.3 192h-268.5c-1.8 0-3.5 1.5-3.6 3.3-0.1 2 1.5 3.7 3.4 3.7h268.9c1.9 0 3.5-1.7 3.4-3.7-0.1-1.8-1.7-3.3-3.6-3.3z"/>
			<path id="&lt;Path&gt;" class="s0" d="m178.3 199h-128.8c-1.9 0-3.4-1.5-3.4-3.4 0-1.9 1.5-3.4 3.4-3.4h128.8c1.9 0 3.5 1.5 3.5 3.4 0 1.9-1.6 3.4-3.5 3.4z"/>
		</g>
		<g id="&lt;Group&gt;">
			<g id="&lt;Group&gt;">
				<g id="&lt;Group&gt;">
					<path id="&lt;Path&gt;" class="s1" d="m450.9 110.6h-1.3c-2.4 0-4.4-2-4.4-4.4v-11.3h10.1v11.3c0 2.4-1.9 4.4-4.4 4.4z"/>
					<path id="&lt;Path&gt;" class="s2" d="m461 91.5c1.6-2.6 1.1-7-1.7-9.8-2.7-2.8-6.9-3.4-10.3-1.7l-0.6 0.3c-2.2 1.2-3.8 3.3-4.4 5.7l-1.7 7.9-3.5 1.2 1 9.8 3.3-2.9 5.3-4.6 3.4 1.7c2 1.2 4.7 0.5 5.9-1.5v-0.1l1-1.7z"/>
					<path id="&lt;Path&gt;" class="s1" d="m462.2 88.9l0.4-0.1c1.2-5-1.8-10.1-6.7-11.6-5.6-1.6-11.5 2-12.4 7.7-0.4 1.9-0.8 4.5-0.8 7.1l6.6-5.6 0.6 0.3c3.7 2.1 8.1 2.8 12.3 2.2z"/>
					<path id="&lt;Path&gt;" class="s3" d="m454.7 95.4c-0.6 0.9-1.8 1.2-2.7 0.7-0.9-0.5-1.2-1.7-0.6-2.6"/>
					<path id="&lt;Path&gt;" class="s0" d="m451.1 118l-1.1-12.1c-0.2-1-0.6-1.8-1.3-2.6l-3.2-3.4-2.4 2.1-4.3-6.9-8.4-3.1c0 0-14.1 19.4-15.9 30.9l-0.5 2.9 19.5 3.6 6.7-11.2 3.4-3.1 1.4 8.4c0.4 2.4 2.4 4.1 4.8 4 1.8 0 3.4-1.1 4.2-2.7l8.1-16.9-4.6-2.1z"/>
					<path id="&lt;Path&gt;" class="s4" d="m407.2 182.7l12.9-41.1c0 0 11.5-7.2 13-11.3l0.4-0.9-19.5-3.6-2.6 4.6c-2 3-3.2 6.4-3.3 10l-0.4 13.2-2 5c-1.7 4.3-3.4 12.9-3.6 17.6l-0.5 6.5z"/>
					<path id="&lt;Path&gt;" class="s5" d="m429.6 180.3l0.3 2.4h6l2.7-24.3c0.2-1.5 0-3-0.5-4.5l-4.6-24.5-8.5-1.6-4.9 13.8 10.3 15.9c0 0-1.8 14.9-0.8 22.8z"/>
					<path id="&lt;Path&gt;" class="s2" d="m449.8 89.1c-0.6 1.1-2 1.4-3 0.8-1-0.6-1.4-1.9-0.8-3 0.6-1 2-1.4 3-0.8 1.1 0.7 1.4 2 0.8 3z"/>
				</g>
				<path id="&lt;Path&gt;" class="s0" d="m427.1 104.6l-3.2 17.8 13 16.4 4-2.7-7.2-16.3-0.1-19.6z"/>
				<path id="&lt;Path&gt;" class="s2" d="m462.1 107.9c0.9-0.5 1.7-1.2 2.3-2l0.8-1.3c0.4-0.8 0.2-1.9-0.5-2.6l-2.2-2 1.7-3.2c0.2-0.5 0-1.1-0.5-1.2-0.4-0.2-0.8 0-1 0.3l-2.8 3.5-0.2 0.3q-0.8 0.8-1.3 1.9-0.7 1.3-0.8 2.8l-0.1 1.4z"/>
			</g>
			<g id="&lt;Group&gt;">
				<g id="&lt;Group&gt;">
					<path id="&lt;Path&gt;" class="s2" d="m446.2 143.3c0.5-0.3 0.6-0.8 0.4-1.3l-2-3.5-2.3-0.3 2.7 4.7c0.2 0.5 0.8 0.6 1.2 0.4z"/>
					<path id="&lt;Path&gt;" class="s2" d="m445 144.9c0.5-0.2 0.6-0.8 0.4-1.2l-3.1-5.5-1.6 1 3.1 5.4c0.2 0.4 0.8 0.6 1.2 0.3z"/>
					<path id="&lt;Path&gt;" class="s2" d="m443 145.1c0.5-0.3 0.6-0.8 0.4-1.3l-2.7-4.6-1.6 0.9 2.7 4.6c0.2 0.5 0.8 0.6 1.2 0.4z"/>
					<path id="&lt;Path&gt;" class="s2" d="m440.2 143.8c0.4-0.3 0.6-0.8 0.3-1.3l-1.4-2.4-1.6 0.9 1.4 2.4c0.3 0.5 0.8 0.6 1.3 0.4z"/>
				</g>
				<path id="&lt;Path&gt;" class="s2" d="m438.1 141.9l-0.9-1.6-0.2-1.7 4.2-2.5h0.1c1.5 0.4 2.7 1.4 3.5 2.8l0.1-0.1z"/>
			</g>
		</g>
		<g id="&lt;Group&gt;">
			<path id="&lt;Compound Path&gt;" fill-rule="evenodd" class="s3" d="m163.1 135.1q0 12.4-4 23.1-3.9 10.7-11.2 18.7l23.7 23-20 16.3-25.4-24.9q-5.4 2-11.2 3-5.8 1-11.9 1-27 0-43.8-17-16.7-17-16.7-43.2v-25.5q0-26.1 16.7-43.2 16.7-17 43.6-17 26.7 0 43.4 17 16.8 17.1 16.8 43.2zm-32.9-25.7q0-15.2-7.1-25-7.2-9.7-20.2-9.7-13.4 0-20.4 9.7-7.1 9.7-7.1 25v25.7q0 15.4 7.2 25.1 7.1 9.8 20.5 9.8 12.9 0 20-9.8 7.1-9.7 7.1-25.1z"/>
			<path id="&lt;Compound Path&gt;" class="s3" d="m290.8 51.4v93q0 24.2-16.1 37.6-16.2 13.3-42.3 13.3-26.4 0-42.5-13.3-16.2-13.4-16.2-37.6v-93h33v93q0 13 6.7 19.3 6.8 6.3 19 6.3 12.2 0 18.8-6.2 6.6-6.3 6.6-19.4v-93z"/>
			<path id="&lt;Compound Path&gt;" class="s3" d="m333.4 193.3h-32.8v-141.9h32.8z"/>
			<path id="&lt;Compound Path&gt;" class="s3" d="m383.9 167.9h64.6v25.4h-105.1v-14.8l63.4-101.7h-63.7v-25.4h104.6v14.3z"/>
		</g>
		<g id="&lt;Group&gt;">
			<path id="&lt;Path&gt;" class="s0" d="m132.3 196.8l-2.1 4.3h13.5c-0.4-1.6-2-2.6-3.7-2.4l-1.6 0.3c-1.1 0-1.9-1.2-1.5-2.2z"/>
			<path id="&lt;Path&gt;" class="s0" d="m143.7 196.8l-2.1 4.3h13.5c-0.4-1.6-2-2.6-3.7-2.4l-1.6 0.3c-1.1 0-1.9-1.2-1.5-2.2z"/>
			<g id="&lt;Group&gt;">
				<g id="&lt;Group&gt;">
					<path id="&lt;Path&gt;" class="s6" d="m142.3 197.2l-11.9-30.7-13.7-7-15.6 8.4-4.3-6.7 16.9 1.9 22.8-5.1c1.8 0.7 3.2 2.4 3.5 4.3l10.3 34.9z"/>
					<path id="&lt;Path&gt;" class="s1" d="m128.1 158.7c1.7 0.9 2.9 2.6 3 4.5l7.9 34h-7.5l-11-29c0 0-13.9 3.4-23.4 3.4-4.2 0-8.8-3.9-8.8-8.8v-1.6z"/>
					<path id="&lt;Compound Path&gt;" fill-rule="evenodd" class="s7" d="m110.9 138.5l0.7 21.9-23.3 2.7v-4.1l-10.7-4.8c-2.5-1.2-3.4-4.4-1.9-6.7l10.6-15.9c1.8-3.2 5.2-5.2 8.9-5.2h12.3c3.2 0 6.2 1.9 7.6 4.8l9.6 20.2-4.1 6.3zm-22.7 12.9v-8.4l-3.4 4.7c-0.7 0.8-0.4 2 0.6 2.4z"/>
					<path id="&lt;Path&gt;" class="s2" d="m112.7 109c0-3.4-2.9-7.3-7.2-8.4-4.2-1.1-8.5 0.6-10.8 4.2l-0.3 0.6c-1.5 2.4-1.9 5.3-1.1 8l2.8 8.3 0.1 4.7 4.1 2 3.9-2 0.1-5.1h3.8c2.6 0 4.7-2.2 4.7-4.8v-3.6z"/>
					<path id="&lt;Path&gt;" class="s3" d="m108.7 116.2c0 1.2-0.9 2.1-2.1 2.1-1.2 0-2.1-0.9-2.1-2.1"/>
					<g id="&lt;Group&gt;">
						<g id="&lt;Group&gt;">
							<path id="&lt;Path&gt;" class="s2" d="m102.8 158.8c0.3-0.5 0.1-1.1-0.4-1.4l-4-2.1-2.6 1.3 5.6 2.6c0.5 0.3 1.1 0.1 1.4-0.4z"/>
							<path id="&lt;Path&gt;" class="s2" d="m102.7 161.1c0.2-0.5 0-1.1-0.5-1.4l-6.1-3.2-0.9 1.8 6.1 3.2c0.5 0.3 1.1 0.1 1.4-0.4z"/>
							<path id="&lt;Path&gt;" class="s2" d="m100.9 162.4c0.3-0.5 0.1-1.1-0.4-1.4l-5.3-2.7-0.9 1.8 5.2 2.7c0.5 0.3 1.2 0.1 1.4-0.4z"/>
							<path id="&lt;Path&gt;" class="s2" d="m97.5 162.9c0.2-0.5 0-1.1-0.5-1.4l-2.7-1.4-1 1.8 2.8 1.4c0.5 0.3 1.1 0.1 1.4-0.4z"/>
						</g>
						<path id="&lt;Path&gt;" class="s2" d="m94.4 162.4l-1.3-0.6q-0.5-0.3-0.9-0.7l-0.8-1.1 2.4-4.9h0.1c1.6-0.6 3.4-0.4 4.9 0.5z"/>
					</g>
					<path id="&lt;Path&gt;" class="s0" d="m99.7 97.5c5.5-1.3 11.1 1.3 13 6.8 0.4 1.3 0.4 2.1 0.4 2.1l-4.1 0.2-1.5-2.6-0.6 2.7-7.3 0.5-4.7 11.3c-1.5-2.5-2-4.3-2.8-6.4-2.3-6.1 1.3-13 7.6-14.6z"/>
					<path id="&lt;Path&gt;" class="s2" d="m99.6 112.9c0 1.1-0.9 2-2 2-1 0-1.9-0.9-1.9-2 0-1 0.9-1.9 1.9-1.9 1.1 0 2 0.9 2 1.9z"/>
					<path id="&lt;Path&gt;" class="s0" d="m104.6 97.2c0 2.1-1.7 3.8-3.8 3.8-2.1 0-3.8-1.7-3.8-3.8 0-2.1 1.7-3.8 3.8-3.8 2.1 0 3.8 1.7 3.8 3.8z"/>
					<path id="&lt;Path&gt;" class="s0" d="m100 103.6v12.9c0 0-2.3-3.3-1.5-7.5 0.7-4.2 1.5-5.4 1.5-5.4z"/>
				</g>
			</g>
			<g id="&lt;Group&gt;">
				<path id="&lt;Path&gt;" class="s3" d="m140.3 160.8h-28.3c0-1.5 1.3-2.8 2.9-2.8h25.4z"/>
				<path id="&lt;Path&gt;" class="s0" d="m145.9 160.7h-24.8c-1.5 0-2.6-1.3-2.3-2.8l3.4-15.9c0.3-1.1 1.2-1.9 2.3-1.9h24.8c1.5 0 2.6 1.4 2.3 2.8l-3.4 16c-0.2 1.1-1.2 1.8-2.3 1.8z"/>
				<path id="&lt;Path&gt;" class="s3" d="m137.4 150.4c0 1.2-1 2.2-2.2 2.2-1.2 0-2.1-1-2.1-2.2 0-1.2 0.9-2.1 2.1-2.1 1.2 0 2.2 0.9 2.2 2.1z"/>
			</g>
		</g>
		<path id="&lt;Path&gt;" class="s4" d="m212 21.6c0-6.5-5.2-11.6-11.7-11.6h-9.3c-6.5 0-11.7 5-11.7 11.5 0 6.5 5.2 11.5 11.7 11.5h5.9l7.1 2.8v-3.2c5-1.6 8-5.8 8-11z"/>
		<path id="&lt;Path&gt;" class="s1" d="m370.7 171.4c0 6.5 4.9 11.6 11.4 11.6h9.4c6.5 0 11.7-5 11.7-11.5 0-6.5-5.2-11.5-11.7-11.5h-6l-6.5-2.7v3.2c-5 1.6-8.3 5.8-8.3 10.9z"/>
		<path id="&lt;Path&gt;" class="s1" d="m113.6 77.4c0-6.4 4.8-11.4 11.3-11.4h9.3c6.5 0 11.7 5 11.7 11.5 0 6.5-5.2 11.5-11.7 11.5h-5.9l-6.3 2.5v-3.3c-6-1.5-8.4-5.6-8.4-10.8z"/>
		<g id="&lt;Group&gt;">
			<path id="&lt;Compound Path&gt;" class="s1" d="m320.7 69q0 2.4-0.8 3.7-0.9 1.2-3.2 2.8-1.2 0.8-1.9 1.9-0.7 1.1-0.7 2.5 0 1.5 0.8 2.4 0.8 0.9 2.3 0.9 1.2 0 2-0.7 0.8-0.8 0.8-2.2h5.9v0.1q0 3.7-2.4 5.6-2.4 1.8-6.3 1.8-4.2 0-6.7-2.1-2.4-2.1-2.4-5.8 0-2.2 1.3-4.1 1.4-1.8 3.4-2.9 1.1-0.7 1.5-1.6 0.4-0.9 0.4-2.3zm-5.9-7.4h5.9v4.8h-5.9z"/>
		</g>
		<g id="&lt;Group&gt;">
			<g id="&lt;Group&gt;">
				<path id="&lt;Compound Path&gt;" class="s2" d="m186.5 141.5q0-2.5 0.9-3.7 0.8-1.3 3.2-2.9 1.1-0.7 1.8-1.8 0.7-1.1 0.7-2.6 0-1.4-0.8-2.3-0.8-0.9-2.3-0.9-1.2 0-2 0.7-0.8 0.7-0.8 2.2h-5.8l-0.1-0.1q0-3.7 2.4-5.6 2.4-1.8 6.3-1.8 4.3 0 6.7 2.1 2.4 2.1 2.4 5.7 0 2.3-1.3 4.1-1.3 1.9-3.4 3-1.1 0.7-1.5 1.6-0.4 0.8-0.4 2.3zm6 7.4h-6v-4.8h6z"/>
			</g>
			<g id="&lt;Group&gt;">
				<path id="&lt;Compound Path&gt;" class="s2" d="m186.5 141.5q0-2.5 0.9-3.7 0.8-1.3 3.2-2.9 1.1-0.7 1.8-1.8 0.7-1.1 0.7-2.6 0-1.4-0.8-2.3-0.8-0.9-2.3-0.9-1.2 0-2 0.7-0.8 0.7-0.8 2.2h-5.8l-0.1-0.1q0-3.7 2.4-5.6 2.4-1.8 6.3-1.8 4.3 0 6.7 2.1 2.4 2.1 2.4 5.7 0 2.3-1.3 4.1-1.3 1.9-3.4 3-1.1 0.7-1.5 1.6-0.4 0.8-0.4 2.3zm6 7.4h-6v-4.8h6z"/>
			</g>
		</g>
		<g id="&lt;Group&gt;">
			<path id="&lt;Compound Path&gt;" class="s0" d="m84.3 91.4h-6v-16.7h6zm0 9.2h-6v-5.1h6z"/>
		</g>
		<g id="&lt;Group&gt;">
			<path id="&lt;Compound Path&gt;" class="s0" d="m423.1 54h-6v-16.7h6zm0 9.2h-6v-5h6z"/>
		</g>
		<g id="&lt;Group&gt;">
			<path id="&lt;Path&gt;" class="s0" d="m223.4 164.4l-0.8 4-10.1-5.2c1-1.2 2.7-1.3 3.9-0.4l1.2 0.8c0.9 0.5 2-0.1 2.1-1.1z"/>
			<path id="&lt;Path&gt;" class="s0" d="m242.2 164.4l0.9 4 10-5.2c-1-1.2-2.7-1.3-3.9-0.4l-1.2 0.8c-0.9 0.5-2-0.1-2.1-1.1z"/>
			<path id="&lt;Path&gt;" class="s7" d="m246.9 126l-2.9-26.8-10.3-4.1-0.9 0.4-0.9-0.4-10.2 4.1-3 26.8q0 0.5 0 1l1 35.5 3.7 1.9c0 0 2.5-4.5 3.6-15.5 1.2-10.9 0.3-20.7 0.3-20.7l5.5-19.7 5.5 19.7c0 0-0.9 9.8 0.3 20.7 1.1 11 3.6 15.5 3.6 15.5l3.7-1.9 1-35.5q0.1-0.5 0-1z"/>
			<g id="&lt;Group&gt;">
				<g id="&lt;Group&gt;">
					<path id="&lt;Path&gt;" class="s2" d="m281 50.3l-7.7 2.5 0.5 1.7 7.8-2.5c0.5-0.1 0.7-0.6 0.6-1.1-0.2-0.5-0.7-0.7-1.2-0.6z"/>
					<path id="&lt;Path&gt;" class="s2" d="m272 51.2l0.6-0.5c3.4-1.1 6.4-3.4 8.3-6.4l0.2-0.2c0.5-0.8 1.5-0.9 2.2-0.3 0.4 0.4 0.6 1.1 0.3 1.7-1.5 3.5-4.4 6.3-7.9 7.9l-3.9 1.7z"/>
				</g>
				<g id="&lt;Group&gt;">
					<path id="&lt;Path&gt;" class="s2" d="m184.8 50.3l7.8 2.5-0.6 1.7-7.8-2.5c-0.4-0.1-0.7-0.6-0.5-1.1 0.1-0.5 0.6-0.7 1.1-0.6z"/>
					<path id="&lt;Path&gt;" class="s2" d="m193.9 51.2l-0.7-0.5c-3.4-1.1-6.3-3.4-8.3-6.4l-0.2-0.2c-0.5-0.8-1.5-0.9-2.2-0.3-0.4 0.4-0.6 1.1-0.3 1.7 1.6 3.5 4.4 6.3 7.9 7.9l3.9 1.7z"/>
				</g>
				<path id="&lt;Path&gt;" class="s1" d="m272.4 50.7l-35.7 11.6c0 0-7.6 0-7.6 0l-35.7-11.6-1.1 3.8 28 13.4 0.8 31.1h23.6l0.9-31.1 27.9-13.5z"/>
				<path id="&lt;Path&gt;" class="s2" d="m245.1 45c0.1-3.4-2.9-7.3-7.3-8.5-4.1-1.1-8.6 0.6-10.9 4.3l-0.3 0.6c-1.5 2.4-1.9 5.4-1.1 8.1l2.9 8.4-0.2 4.1 4.5 4 4-3.7v-4.9l3.7 0.1c2.7 0 4.8-2.2 4.8-4.9v-3.6z"/>
				<path id="&lt;Path&gt;" class="s0" d="m227.2 84.1c1.8 0 3.3-1.5 3.2-3.2l-0.1-34.1 14.9-4c0 0 0-0.7-0.4-2-1.9-5.4-7.3-7.9-12.6-6.6-5 1.3-8.2 5.7-8.2 10.5 0 0.4 0 25.6 0 36.2 0 1.8 1.5 3.2 3.2 3.2z"/>
				<path id="&lt;Path&gt;" class="s3" d="m241.1 52.3c0 1.2-0.9 2.2-2.1 2.2-1.2 0-2.2-1-2.2-2.2"/>
			</g>
			<path id="&lt;Path&gt;" class="s2" d="m233.2 48.9c0 1.4-1.1 2.5-2.5 2.5-1.4 0-2.6-1.1-2.6-2.5 0-1.4 1.2-2.5 2.6-2.5 1.4 0 2.5 1.1 2.5 2.5z"/>
		</g>
		<g id="&lt;Group&gt;">
			<path id="&lt;Path&gt;" class="s0" d="m355.2 116.1v18.2c0 1.1 0.7 2 1.7 2.2 1.4 0.2 2.5-0.8 2.5-2.1v-5.2c0-1.2 1-2.1 2.1-2.1 1 0 2.1 0.7 2.1 1.6v17.7c0 1 0.7 2 1.7 2.2 1.4 0.2 2.5-0.8 2.5-2.1v-13.7c-0.1-1.2 1-2.2 2.2-2.1 1.1 0 2 1 2 2.1v4.2c0 1 0.7 2 1.7 2.1 1.4 0.3 2.5-0.8 2.5-2v-24.6z"/>
			<path id="&lt;Path&gt;" class="s2" d="m355.7 63.6h10.7 10.6l5.7-12.2c1.3-2.9-1-6.1-4.1-5.8q-1 0.1-1.9 0.7l-10.3 7.1-10.4-7.1q-0.9-0.6-1.9-0.7c-3.1-0.3-5.4 2.9-4.1 5.8z"/>
			<g id="&lt;Group&gt;">
				<path id="&lt;Path&gt;" class="s2" d="m332 120.7l5.4-6-1.3-1.2-5.5 6c-0.3 0.3-0.3 0.9 0.1 1.2 0.4 0.4 0.9 0.4 1.3 0z"/>
				<path id="&lt;Path&gt;" class="s2" d="m339.3 115.4l-0.3 0.8c-2.4 2.6-3.8 6-4 9.6v0.3c0 0.9-0.9 1.5-1.8 1.3-0.6-0.1-1-0.6-1.1-1.3-0.4-3.8 0.7-7.6 2.9-10.7l2.5-3.4z"/>
			</g>
			<g id="&lt;Group&gt;">
				<path id="&lt;Path&gt;" class="s2" d="m401.8 120.7l-5.5-6 1.3-1.2 5.5 6c0.3 0.3 0.3 0.9-0.1 1.2-0.3 0.4-0.9 0.4-1.2 0z"/>
				<path id="&lt;Path&gt;" class="s2" d="m394.4 115.4l0.3 0.8c2.4 2.6 3.8 6 4 9.6v0.3c0.1 0.9 0.9 1.5 1.8 1.3 0.6-0.1 1-0.6 1.1-1.3 0.4-3.8-0.6-7.6-2.9-10.7l-2.5-3.4z"/>
				<path id="&lt;Path&gt;" class="s4" d="m397.4 113.4l-18.2-24.5-2.2-25.3-1.5-0.5c-5.9-1.7-12.1-1.7-18 0l-1.8 0.5-1.3 25.5-18 24.3 2.8 2.7 13.7-14.4c3.7-3.8 8.7-6 13.9-6 5.3 0 10.4 2.2 14 6l13.8 14.3z"/>
			</g>
			<path id="&lt;Path&gt;" class="s2" d="m354.6 112.7c-0.1 3.2 2.8 7.1 7 8.2 4.1 1.1 8.4-0.6 10.6-4.2l0.3-0.6c1.5-2.3 1.9-5.1 1.1-7.7l-2.8-6.9v-4.9l-3.9-2.9-4 2.9-0.1 5.3h-3.7c-2.6 0-4.6 2.1-4.6 4.7v0.1 2.1z"/>
			<path id="&lt;Path&gt;" class="s3" d="m358.5 106.9c0-1.1 0.9-2 2-2 1.2 0 2.1 0.9 2.1 2"/>
			<path id="&lt;Path&gt;" class="s0" d="m368.2 111.8l-14 2.9c0 0 0 0.8 0.5 2.2 1.9 5.5 7.5 8.1 13 6.7 5-1.2 8.5-5.9 8.5-10.6 0-4.6-4.3-8.7-4.3-8.7z"/>
			<path id="&lt;Path&gt;" class="s2" d="m366.5 110.1c0-1.3 1-2.4 2.4-2.4 1.3 0 2.3 1.1 2.3 2.4 0 1.3-1 2.4-2.3 2.4-1.4 0-2.4-1.1-2.4-2.4z"/>
		</g>
		<g id="&lt;Group&gt;">
			<path id="&lt;Path&gt;" class="s0" d="m307.9 155.9c-1.6-5.2-3.9-7.4-8.2-7.7-1.9-0.1-17.8-0.1-19.7 0-4.2 0.3-6.2 2.9-7.8 8.2l-3.6 14.7c-0.3 1.6 0.2 3.3 1.3 4.5l4.9 5.5 2.3-19.3 4.2 23h18.8l3.1-23 3.1 19.1 4.8-5.4c1.1-1.2 1.5-2.9 1.3-4.5z"/>
			<path id="&lt;Path&gt;" class="s2" d="m277.3 131.7c-0.1-3.4 2.9-7.3 7.2-8.5 4.2-1.1 8.6 0.7 10.8 4.3l0.4 0.6c1.5 2.4 1.9 5.3 1 8l-2.8 7v5l-4 3-4.1-3-0.1-5.4h-3.8c-2.6 0-4.7-2.2-4.7-4.8v-0.1-2.2z"/>
			<path id="&lt;Path&gt;" class="s3" d="m281.3 137.6c0 1.1 0.9 2.1 2.1 2.1 1.2 0 2.1-1 2.1-2.1"/>
			<path id="&lt;Path&gt;" class="s1" d="m294.3 142l3-5.1q0.6-1 0.9-2l0.1-0.1c1.9-5.7-1-12.2-6.8-14.1q-0.4-0.1-0.8-0.2c-5.6-1.4-11.4 1.2-13.3 6.9-0.5 1.4-0.5 2.1-0.5 2.1l7 5.1c1.6 1.2 3.9 0.9 5.1-0.6l1.5-1.7z"/>
			<path id="&lt;Path&gt;" class="s2" d="m289.5 134.3c0 1.3 1.1 2.4 2.4 2.4 1.4 0 2.4-1.1 2.4-2.4 0-1.4-1-2.4-2.4-2.4-1.3 0-2.4 1-2.4 2.4z"/>
			<path id="&lt;Path&gt;" class="s2" d="m319.4 184.7c-1.3-2.1-3.8-3-6.2-2.4l-10.6 2.7h-24.4l-10.6-2.7c-2.4-0.6-4.9 0.4-6.2 2.5-1.8 2.9-0.6 6.9 2.6 8.3l19 5.9h20.1l13.7-5.9c3.2-1.4 4.4-5.4 2.6-8.4z"/>
			<path id="&lt;Path&gt;" class="s0" d="m296.6 197.3l1.5 1.6 13.5 0.2c-0.3-1.7-1.9-2.8-3.6-2.6l-1.7 0.2c-3 0-5-2.5-5-2.5z"/>
			<path id="&lt;Path&gt;" class="s0" d="m275.7 196.5q-0.5 0.2-1.2 0.2l-1.6-0.2c-1.8-0.2-3.3 0.9-3.7 2.6l13.8-0.2z"/>
			<g id="&lt;Group&gt;">
				<path id="&lt;Path&gt;" class="s3" d="m303.3 191.5h-25.8c-1.3 0-2.4-0.9-2.5-2.2l-1.7-16.1c-0.1-1.5 1.1-2.8 2.5-2.8h29.2c1.5 0 2.6 1.3 2.5 2.8l-1.7 16.1c-0.2 1.3-1.2 2.2-2.5 2.2z"/>
				<path id="&lt;Path&gt;" class="s4" d="m292.6 181c0 1.2-1 2.2-2.2 2.2-1.2 0-2.2-1-2.2-2.2 0-1.2 1-2.2 2.2-2.2 1.2 0 2.2 1 2.2 2.2z"/>
			</g>
			<path id="&lt;Path&gt;" class="s0" d="m276.4 130.3c0.1-0.6 0.2-2.4 0.2-3.3 0.4-5.1 5.9-9.2 11.6-9 4.8 0.1 9.1 3.3 10.7 7.9 0.4 1 0.6 1.9 0.7 3.1l-0.1 1.2-29.3 1.6-0.1-1.2z"/>
		</g>
	</g>
</svg>