<?xml version="1.0" standalone="no"?>
<!DOCTYPE svg PUBLIC "-//W3C//DTD SVG 20010904//EN"
 "http://www.w3.org/TR/2001/REC-SVG-20010904/DTD/svg10.dtd">
<svg version="1.0" xmlns="http://www.w3.org/2000/svg"
 width="512.000000pt" height="512.000000pt" viewBox="0 0 512.000000 512.000000"
 preserveAspectRatio="xMidYMid meet">

<g transform="translate(0.000000,512.000000) scale(0.100000,-0.100000)"
fill="#d63031" stroke="none">
<path d="M2371 5110 c-798 -66 -1500 -476 -1935 -1130 -289 -433 -429 -897
-429 -1420 0 -690 259 -1317 748 -1805 487 -488 1115 -748 1805 -748 597 0
1139 191 1610 567 208 166 447 444 593 690 326 551 431 1221 291 1856 -211
956 -979 1723 -1934 1934 -233 51 -534 74 -749 56z m279 -872 c26 -14 57 -41
75 -66 l30 -44 0 -683 0 -683 -30 -43 c-16 -23 -50 -53 -74 -66 -89 -47 -196
-19 -256 66 l-30 43 0 683 0 683 30 44 c37 53 102 88 165 88 28 0 63 -9 90
-22z m-762 -202 c39 -20 83 -66 98 -103 29 -67 11 -168 -39 -221 -12 -13 -59
-48 -104 -78 -276 -184 -477 -482 -549 -814 -25 -115 -29 -344 -10 -465 46
-280 183 -536 390 -733 243 -230 551 -352 886 -352 335 0 643 122 886 352 157
150 270 326 338 528 52 156 69 276 63 450 -7 215 -39 343 -133 535 -94 194
-256 379 -437 499 -126 84 -157 127 -157 219 0 114 86 202 199 202 45 0 67 -7
116 -35 100 -57 245 -173 341 -272 317 -325 484 -735 484 -1188 0 -471 -183
-900 -522 -1225 -327 -313 -727 -475 -1178 -475 -451 0 -851 162 -1178 475
-283 271 -464 631 -512 1018 -18 140 -8 413 20 542 48 229 150 464 277 645 97
138 302 339 436 428 59 39 122 76 140 81 39 12 108 6 145 -13z"/>
</g>
</svg>
